<!--?xml version="1.0" encoding="utf-8"?-->
<!-- Generator: Adobe Illustrator 19.1.1, SVG Export Plug-In . SVG Version: 6.00 Build 0)  -->
<svg version="1.1" id="_x31_0" xmlns="http://www.w3.org/2000/svg" xmlns:xlink="http://www.w3.org/1999/xlink" x="0px" y="0px" viewBox="0 0 512 512" style="width: 256px; height: 256px; opacity: 1;" xml:space="preserve">
<style type="text/css">
	.st0{fill:#374149;}
</style><style class="darkreader darkreader--sync" media="screen"></style>
<g>
	<path class="st0" d="M472.897,309.296l-1.214,7.782l-92.047-14.387c-2.442-0.382-4.332-2.343-4.618-4.801l-9.875-84.652
		c-0.363-3.126-3.269-5.309-6.37-4.794l-51.758,8.626c-2.473,0.414-4.91-0.895-5.934-3.184l-8.222-18.394
		c-1.168-2.614-4.145-3.894-6.844-2.95l-46.106,16.133c-2.871,1.004-6.012-0.507-7.016-3.378l-2-5.719
		c-1-2.871,0.512-6.011,3.379-7.015l43.879-15.352c3.039-1.066,4.519-4.504,3.207-7.445l-2.57-5.746
		c-1.242-2.778,0.004-6.035,2.777-7.274l5.532-2.473c2.777-1.242,6.031,0.004,7.273,2.782l16.91,37.832
		c1.023,2.289,3.461,3.598,5.934,3.187l56.43-9.41c3.105-0.516,6.011,1.668,6.374,4.793l10.45,89.566
		c0.285,2.458,2.176,4.422,4.617,4.805l70.598,11.035c3.66,0.574,6.84-2.539,6.336-6.211c-1.195-8.699-3.586-18.16-7.516-28.472
		c-3.137-8.227-6.734-16.438-10.918-24.501c-1.852-3.562-6.836-3.906-9.234-0.687c-5.02,6.734-10.664,14.398-16.203,22.004
		c-1.79,2.457-5.223,3-7.684,1.218l-4.902-3.554c-2.465-1.785-2.988-5.266-1.199-7.726c10.282-14.145,17.524-23.954,22.734-30.805
		c1.481-1.95,1.508-4.629,0.043-6.59c-27.641-36.993-72.684-66.942-150.294-74.321c-25.867-2.457-49.672-1.438-71.547,2.062
		c-3.66,0.586-5.641,4.633-3.965,7.938l12.715,25.078c1.57,3.102-0.086,6.863-3.438,7.793l-52.278,14.543
		c-4.746,1.32-5.5,7.734-1.191,10.121l43.266,23.95c2.66,1.473,3.621,4.824,2.148,7.484l-2.93,5.297
		c-0.703,1.27-1.847,2.122-3.129,2.539c-0.129,0.039-0.258,0.07-0.386,0.106c-1.297,0.316-2.711,0.203-3.969-0.496l-79.746-44.145
		c-4.313-2.386-3.558-8.801,1.191-10.121l72.387-20.141c3.347-0.934,5.004-4.695,3.434-7.797l-6.594-12.997
		c-1.188-2.347-3.906-3.558-6.442-2.847c-47.676,13.418-84.223,38.969-109.661,65.398c-15.094,15.684-25.023,33.805-30.875,51.626
		c-0.25,0.75-0.527,1.492-0.766,2.246c-0.469,1.512-0.859,3.012-1.266,4.52c-1.386,4.953-2.586,9.953-3.398,15.023l0.211-0.32
		c-0.02,0.133-0.055,0.273-0.074,0.406l22.914-34.938c2.273-3.472,7.426-3.273,9.426,0.364l20.82,37.851
		c2.137,3.89,7.762,3.778,9.75-0.191l17.59-35.176c0.238-0.477,0.574-0.867,0.918-1.238c0.117-0.129,0.218-0.27,0.347-0.382
		c1.363-1.219,3.278-1.734,5.126-1.227l88.562,24.477c2.934,0.809,4.653,3.844,3.84,6.774l-1.614,5.836
		c-0.808,2.93-3.839,4.649-6.773,3.84l-75.032-20.742c-2.535-0.699-5.214,0.492-6.394,2.844l-25.848,51.711
		c-1.984,3.969-7.609,4.078-9.75,0.191l-22.825-41.485c-2-3.637-7.152-3.836-9.43-0.367l-21.91,33.414
		c-0.003,0.027-0.007,0.05-0.015,0.078c5.515,34.886,27.207,57.418,71.184,64.863c2.148,0.363,4.367-0.606,5.57-2.422l48.351-72.918
		c1.41-2.125,4.098-3.004,6.493-2.121l82.375,30.351c4.046,1.488,8.16-2.039,7.301-6.266l-16.184-79.524
		c-0.625-3.086,1.457-6.066,4.57-6.538l86.715-13.157c3.008-0.457,5.813,1.614,6.27,4.618l0.906,5.98
		c0.457,3.004-1.61,5.813-4.618,6.27l-68.977,10.469c-3.113,0.473-5.195,3.458-4.566,6.543l18.715,91.938
		c0.859,4.226-3.254,7.754-7.301,6.266l-98.442-36.27c-2.395-0.882-5.082-0.004-6.493,2.125l-37.847,57.078
		c0.133,0.008,0.258,0.02,0.39,0.028c2.246,5.058,5.027,14.281,9.906,23.781c1.21,2.356,3.886,3.574,6.438,2.859l52.539-14.781
		c2.874-0.805,4.582-3.758,3.843-6.657l-5.934-23.355c-0.75-2.946,1.031-5.946,3.981-6.691l5.867-1.492
		c2.946-0.746,5.942,1.034,6.691,3.98l10.035,39.477c0.738,2.894-0.969,5.848-3.843,6.656l-55.254,15.547
		c-4.649,1.309-5.574,7.672-1.371,10.043c9.051,5.106,20.738,7.668,36.074,5.367c32.879-4.934,46.012-16.398,50.305-21.398
		c1.274-1.485,3.289-2.039,5.211-1.672c22.238,4.277,36.652-2.051,37.809-0.93c0.566,1.281,1.179,2.785,1.781,4.246
		c0.246,0.684,0.555,1.297,0.762,1.996l0.051-0.062c0.023,0.055,0.046,0.106,0.07,0.164l4.305-5.226
		c0.172-0.207,0.355-0.402,0.554-0.582l26.02-23.574c1.683-1.524,2.258-3.926,1.445-6.047l-40.809-106.766
		c-1.086-2.836,0.336-6.02,3.176-7.106l5.652-2.164c2.844-1.086,6.028,0.336,7.114,3.175l11.098,29.035
		c1.359,3.559,5.832,4.692,8.726,2.215l22.356-19.172c2.305-1.977,5.781-1.711,7.762,0.598l3.938,4.59
		c1.981,2.308,1.715,5.785-0.594,7.766l-29.985,25.71c-1.766,1.512-2.39,3.973-1.558,6.145l23.234,60.79
		c0.809,2.121,0.234,4.523-1.45,6.046l-34.183,30.965c-0.203,0.184-0.394,0.387-0.57,0.598l-7.328,8.984
		c-1.211,1.481-1.578,3.426-0.942,5.234c6.422,18.317,13.668,41.598,20.879,68.278c9.195-1.531,19.023-2.774,19.023-2.774
		l-1.008-53.789c-0.066-3.426,2.965-6.168,6.352-5.614c64.477,10.598,73.246-29.367,69.481-55.797
		c-0.074-0.524-0.223-1.024-0.434-1.508l-13.578-31.062c-0.875-2.004-2.855-3.301-5.047-3.301h-30.934
		c-3.042,0-5.508-2.465-5.508-5.504v-6.055c0-3.038,2.466-5.504,5.508-5.504h18.664c3.969,0,6.633-4.074,5.043-7.71
		c-1.218-2.79,0.055-6.035,2.844-7.25l5.546-2.426c2.786-1.218,6.032,0.054,7.25,2.84l18.187,41.614
		c1.383,3.16,5.282,4.339,8.126,2.386c11.71-8.031,25.515-21.531,31.672-42.141c1.777-5.809,3.054-12.09,3.402-19.086l-0.426,2.406
		C472.686,310.893,472.862,310.148,472.897,309.296z" style="fill: rgb(2, 3, 11); --darkreader-inline-fill: #b9b3a9;" data-darkreader-inline-fill=""></path>
	<path class="st0" d="M480.124,123.749l-23.973-19.004l-3.321-2.645c-0.074-0.031-0.094-0.082-0.148-0.148
		c-0.274-0.462-0.34-1.329,0.054-1.77l0.992-1.325l18.68-25.742c0.91-1.234-0.293-2.798-1.645-2.379
		c-0.121-0.012-0.218,0.031-0.32,0.07l-10.793,5.562l-1.657,0.828l-1.882,0.981l-1.703,0.851l-5.359,2.734l-16.004,8.153
		l-2.317,1.21l-2.75,1.442l-4.672,2.406l-4.508,2.27l-1.07,0.496l0.039,0.031l-0.07,0.039l-0.015,0.035l-0.051,0.019l23.973,19
		l3.25,2.618c0.453,0.406,0.578,1.082,0.335,1.648l-1.164,1.626l-18.679,25.738c-0.875,1.25,0.328,2.816,1.644,2.378
		c0.122,0.012,0.223-0.027,0.321-0.066l11.582-5.934c0.614-0.359,1.25-0.672,1.832-0.961c0.934-0.516,1.836-0.961,2.622-1.328
		c2.102-1.098,3.488-1.793,3.488-1.793l1.77-0.906l4.922-2.504l11.184-5.688l2.316-1.21l2.786-1.426l7.242-3.715l2.094-1.086
		l0.879-0.383l-0.059-0.047L480.124,123.749z" style="fill: rgb(2, 3, 11); --darkreader-inline-fill: #b9b3a9;" data-darkreader-inline-fill=""></path>
	<path class="st0" d="M60.907,120.205l3.965-1.309c0.27-0.074,0.551-0.039,0.809,0.055c0.07,0.023,0.121,0.07,0.187,0.106
		c0.215,0.113,0.426,0.25,0.566,0.457l0.73,1.859l11.454,29.672c0.574,1.414,2.539,1.254,2.89-0.086
		c0.074-0.098,0.094-0.203,0.118-0.309l1.312-12.946c0.035-0.711,0.118-1.414,0.192-2.062c0.074-1.062,0.191-2.058,0.308-2.922
		c0.223-2.36,0.395-3.898,0.395-3.898l0.199-1.981l0.574-5.492l1.305-12.477l0.246-2.606l0.316-3.113l0.817-8.098l0.226-2.343
		l0.156-0.95l-0.07,0.023l0.016-0.171l-28.977,9.789l-4.027,1.351c-0.066,0.043-0.118,0.032-0.203,0.043
		c-0.535-0.023-1.301-0.434-1.457-1.011l-0.574-1.551L40.93,70.569c-0.542-1.438-2.507-1.278-2.89,0.086
		c-0.074,0.094-0.098,0.199-0.117,0.309l-1.199,12.082l-0.203,1.84l-0.199,2.113l-0.211,1.89l-0.617,5.985l-1.86,17.867
		l-0.242,2.602l-0.286,3.094l-0.519,5.226l-0.547,5.008l-0.164,1.176l0.047-0.016l-0.008,0.082l0.023,0.031l-0.012,0.054
		L60.907,120.205z" style="fill: rgb(2, 3, 11); --darkreader-inline-fill: #b9b3a9;" data-darkreader-inline-fill=""></path>
	<path class="st0" d="M226.13,51.951l-0.042,0.043l33.144,8.898l4.516,1.246c0.645,0.214,1.074,0.859,1.074,1.546l-0.473,2.196
		l-7.782,34.82c-0.343,1.676,1.59,2.75,2.75,1.719c0.129-0.043,0.214-0.13,0.301-0.215l9.289-11.262
		c0.473-0.645,0.988-1.246,1.461-1.805c0.73-0.946,1.461-1.809,2.106-2.539c1.676-2.062,2.793-3.394,2.793-3.394l1.422-1.719
		l3.953-4.773l8.985-10.832l1.851-2.282l2.234-2.707l5.805-7.05l1.676-2.062l0.73-0.794l-0.066-0.019l0.109-0.133l-33.144-8.902
		l-4.602-1.246c-0.086,0-0.129-0.042-0.215-0.086c-0.488-0.352-0.942-1.215-0.73-1.848l0.43-1.805l7.782-34.824
		c0.386-1.676-1.547-2.75-2.75-1.718c-0.133,0.042-0.218,0.129-0.305,0.214l-8.64,10.531l-1.332,1.59l-1.504,1.851l-1.375,1.633
		l-4.301,5.203l-12.856,15.519l-1.847,2.278l-2.191,2.707l-3.742,4.558l-3.703,4.434l-0.813,0.914l0.047,0.011l-0.043,0.059V51.951z
		" style="fill: rgb(2, 3, 11); --darkreader-inline-fill: #b9b3a9;" data-darkreader-inline-fill=""></path>
</g>
</svg>
