<!--?xml version="1.0" encoding="utf-8"?-->
<!-- Generator: Adobe Illustrator 24.1.1, SVG Export Plug-In . SVG Version: 6.00 Build 0)  -->
<svg version="1.1" id="_x31_0" xmlns="http://www.w3.org/2000/svg" xmlns:xlink="http://www.w3.org/1999/xlink" x="0px" y="0px" viewBox="0 0 512 512" style="width: 256px; height: 256px; opacity: 1;" xml:space="preserve">
<style type="text/css">
	.st0{fill:#374149;}
</style><style class="darkreader darkreader--sync" media="screen"></style>
<g>
	<path class="st0" d="M484.008,141.504h-20.883v-27.29c0-4.359-2.039-8.441-5.492-11.113l-24.328-18.918
		c-2.531-1.969-5.562-2.953-8.586-2.953l-1.406,0.07H285.328c-11.039,0-21.382,4.078-29.328,11.394
		c-7.946-7.386-18.289-11.394-29.258-11.394H88.477l-1.195-0.07c-3.024,0-6.055,0.984-8.578,2.953l-24.336,18.918
		c-3.453,2.672-5.414,6.754-5.414,11.113v27.29H27.992C12.594,141.504,0,154.023,0,169.492v233.566
		c0,15.262,12.375,27.711,27.641,27.711h31.508l5.695-4.43l8.648-6.684h153.25c3.374,0,5.484,1.969,6.476,3.164l6.329,7.95h27.281
		l4.149-1.898l0.281-0.07l0.29-0.141l4.359-2.11l3.023-3.801c1.547-1.969,3.867-3.094,6.398-3.094h153.18l8.648,6.684l5.695,4.43
		h31.508c15.266,0,27.641-12.45,27.641-27.711V169.492C512,154.023,499.414,141.504,484.008,141.504z M226.742,95.367
		c8.086,0,15.398,3.234,20.75,8.648c0.774,0.774,1.477,1.547,2.18,2.391l1.336,1.832c0.422,0.633,0.843,1.336,1.195,1.969
		c1.266,2.109,2.18,4.43,2.813,6.82c0.633,2.39,0.984,4.926,0.984,7.598c0-3.992,0.789-7.746,2.207-11.176
		c0.019-0.046,0.043-0.094,0.062-0.14c0.469-1.114,0.996-2.199,1.598-3.242c0.774-1.266,1.617-2.531,2.602-3.73
		c5.351-6.68,13.578-10.969,22.859-10.969h139.321l0.07-0.07l24.336,18.918v27.29v21.098v201.074H439l-14.351-11.114H285.328
		c-9.281,0-17.508,4.289-22.859,10.973l-0.141,0.141h-12.656c-5.414-6.754-13.641-11.114-22.93-11.114H87.351L73,363.676h-9.984
		V162.602v-21.098v-27.29l24.335-18.918v0.07H226.742z M72.984,381.801c1.563,0,3.063-0.516,4.305-1.473l12.446-9.641h136.984
		c7.047,0.008,13.25,3.278,17.446,8.481c1.328,1.664,3.352,2.633,5.485,2.633h12.664c1.898,0,3.695-0.758,5.031-2.121l0.14-0.145
		l0.454-0.52c4.086-5.078,10.281-8.324,17.367-8.328h136.914l12.454,9.641c1.234,0.961,2.742,1.473,4.305,1.473h24.117
		l0.031-219.199h20.883c3.797,0,6.89,3.094,6.89,6.89v233.566c0,3.66-2.953,6.614-6.539,6.614h-24.258l-14.351-11.114H285.328
		c-9.351,0-17.586,4.289-22.93,11.043l-0.07,0.07h-12.656c-5.414-6.754-13.641-11.114-22.93-11.114H66.25l-14.344,11.114H27.641
		c-3.586,0-6.539-2.954-6.539-6.614V169.492c0-3.797,3.094-6.89,6.89-6.89h20.961L48.93,381.617v0.024l0,0v0.16H72.984z" style="fill: rgb(2, 3, 11); --darkreader-inline-fill: #b9b3a9;" data-darkreader-inline-fill=""></path>
	<polygon class="st0" points="259.305,162.602 259.305,141.504 259.305,139.957 252.695,139.957 252.695,141.504 252.695,162.602 
		252.695,330.973 259.305,330.973 	" style="fill: rgb(2, 3, 11); --darkreader-inline-fill: #b9b3a9;" data-darkreader-inline-fill=""></polygon>
	<polygon class="st0" points="86.93,112.316 86.93,141.504 86.93,162.602 86.93,337.582 90.446,337.582 90.446,162.602 
		90.446,141.504 90.446,112.316 	" style="fill: rgb(2, 3, 11); --darkreader-inline-fill: #b9b3a9;" data-darkreader-inline-fill=""></polygon>
	<polygon class="st0" points="425.07,162.602 425.07,141.504 425.07,112.316 421.554,112.316 421.554,141.504 421.554,162.602 
		421.554,337.582 425.07,337.582 	" style="fill: rgb(2, 3, 11); --darkreader-inline-fill: #b9b3a9;" data-darkreader-inline-fill=""></polygon>
	<path class="st0" d="M130.242,170.902h84.625c1.649,0,3.039-1.481,3.039-3.309v-4.992v-12.309c0-1.828-1.39-3.305-3.039-3.305
		h-84.625c-1.649,0-3.039,1.477-3.039,3.305v12.309v4.992C127.203,169.422,128.594,170.902,130.242,170.902z" style="fill: rgb(2, 3, 11); --darkreader-inline-fill: #b9b3a9;" data-darkreader-inline-fill=""></path>
	<path class="st0" d="M130.242,230.961h84.625c1.649,0,3.039-1.477,3.039-3.305v-17.301c0-1.828-1.39-3.305-3.039-3.305h-84.625
		c-1.649,0-3.039,1.477-3.039,3.305v17.301C127.203,229.484,128.594,230.961,130.242,230.961z" style="fill: rgb(2, 3, 11); --darkreader-inline-fill: #b9b3a9;" data-darkreader-inline-fill=""></path>
	<path class="st0" d="M130.242,291.023h84.625c1.649,0,3.039-1.476,3.039-3.305v-17.301c0-1.828-1.39-3.304-3.039-3.304h-84.625
		c-1.649,0-3.039,1.476-3.039,3.304v17.301C127.203,289.547,128.594,291.023,130.242,291.023z" style="fill: rgb(2, 3, 11); --darkreader-inline-fill: #b9b3a9;" data-darkreader-inline-fill=""></path>
	<path class="st0" d="M301.008,170.902h84.687c1.649,0,2.977-1.481,2.977-3.309v-4.992v-12.309c0-1.828-1.328-3.305-2.977-3.305
		h-84.687c-1.649,0-2.977,1.477-2.977,3.305v12.309v4.992C298.031,169.422,299.359,170.902,301.008,170.902z" style="fill: rgb(2, 3, 11); --darkreader-inline-fill: #b9b3a9;" data-darkreader-inline-fill=""></path>
	<path class="st0" d="M301.008,230.961h84.687c1.649,0,2.977-1.477,2.977-3.305v-17.301c0-1.828-1.328-3.305-2.977-3.305h-84.687
		c-1.649,0-2.977,1.477-2.977,3.305v17.301C298.031,229.484,299.359,230.961,301.008,230.961z" style="fill: rgb(2, 3, 11); --darkreader-inline-fill: #b9b3a9;" data-darkreader-inline-fill=""></path>
	<path class="st0" d="M301.008,291.023h84.687c1.649,0,2.977-1.476,2.977-3.305v-17.301c0-1.828-1.328-3.304-2.977-3.304h-84.687
		c-1.649,0-2.977,1.476-2.977,3.304v17.301C298.031,289.547,299.359,291.023,301.008,291.023z" style="fill: rgb(2, 3, 11); --darkreader-inline-fill: #b9b3a9;" data-darkreader-inline-fill=""></path>
</g>
</svg>
