<!--?xml version="1.0" encoding="utf-8"?-->
<!-- Generator: Adobe Illustrator 24.1.1, SVG Export Plug-In . SVG Version: 6.00 Build 0)  -->
<svg version="1.1" id="_x31_0" xmlns="http://www.w3.org/2000/svg" xmlns:xlink="http://www.w3.org/1999/xlink" x="0px" y="0px" viewBox="0 0 512 512" style="width: 256px; height: 256px; opacity: 1;" xml:space="preserve">
<style type="text/css">
	.st0{fill:#374149;}
</style><style class="darkreader darkreader--sync" media="screen"></style>
<g>
	<path class="st0" d="M0,21.023V477.56c0,7.447,5.974,13.417,13.421,13.417h485.158c7.447,0,13.421-5.97,13.421-13.417V21.023H0z
		 M25.522,62.22c0-8.068,6.515-14.507,14.504-14.507c7.993,0,14.508,6.439,14.508,14.507c0,7.993-6.515,14.508-14.508,14.508
		C32.038,76.728,25.522,70.212,25.522,62.22z M77.576,70.674V53.682c0-2.864,2.326-5.197,5.197-5.197h331.406
		c2.871,0,5.197,2.333,5.197,5.197v16.992c0,2.871-2.326,5.198-5.197,5.198H82.773C79.902,75.872,77.576,73.545,77.576,70.674z
		 M479.262,70.44l-5.894,5.977l-9.075-9.075l-8.993,9.068l-0.007,0.007l-5.894-5.977l8.996-9l-8.996-8.993l5.894-5.977l9,9l9.075-9
		l5.894,5.977l-8.886,8.883v0.003l0,0l-0.114,0.106L479.262,70.44z M15.515,475.462V103.099h480.97v372.363H15.515z" style="fill: rgb(2, 3, 11); --darkreader-inline-fill: var(--darkreader-text-4b4b4b, #b9b3a9);" data-darkreader-inline-fill=""></path>
	<rect x="79.182" y="299.924" class="st0" width="353.667" height="21.098" style="fill: rgb(2, 3, 11); --darkreader-inline-fill: var(--darkreader-text-4b4b4b, #b9b3a9);" data-darkreader-inline-fill=""></rect>
	<rect x="79.182" y="349.883" class="st0" width="353.667" height="21.178" style="fill: rgb(2, 3, 11); --darkreader-inline-fill: var(--darkreader-text-4b4b4b, #b9b3a9);" data-darkreader-inline-fill=""></rect>
	<rect x="79.182" y="399.841" class="st0" width="188.742" height="21.178" style="fill: rgb(2, 3, 11); --darkreader-inline-fill: var(--darkreader-text-4b4b4b, #b9b3a9);" data-darkreader-inline-fill=""></rect>
	<path class="st0" d="M366.834,397.591c-9.155,0-16.602,7.447-16.602,16.602c0,9.151,7.447,16.598,16.602,16.598
		s16.602-7.447,16.602-16.598C383.436,405.038,375.989,397.591,366.834,397.591z" style="fill: rgb(2, 3, 11); --darkreader-inline-fill: var(--darkreader-text-4b4b4b, #b9b3a9);" data-darkreader-inline-fill=""></path>
	<path class="st0" d="M416.25,397.591c-9.155,0-16.602,7.447-16.602,16.602c0,9.151,7.446,16.598,16.602,16.598
		c9.152,0,16.599-7.447,16.599-16.598C432.849,405.038,425.402,397.591,416.25,397.591z" style="fill: rgb(2, 3, 11); --darkreader-inline-fill: var(--darkreader-text-4b4b4b, #b9b3a9);" data-darkreader-inline-fill=""></path>
	<path class="st0" d="M168.958,205.659c0-29.09-23.659-52.674-52.75-52.674c-29.09,0-52.75,23.583-52.75,52.674
		c0,29.167,23.659,52.75,52.75,52.75C145.299,258.409,168.958,234.826,168.958,205.659z M78.583,207.75
		c-0.697-11.091,3.958-22.19,12.258-29.553c8.61-7.758,18.773-10.402,28.083-9.546c0.386,0.034,0.72,0.155,1.061,0.265
		c0.258,0.084,0.504,0.17,0.738,0.296c0.602,0.314,1.091,0.746,1.489,1.261c0.17,0.22,0.326,0.443,0.458,0.694
		c1.038,1.981,0.773,4.659-1.265,6.326l-28.584,23.091l-13.784,11.038C78.814,210.33,78.659,209.042,78.583,207.75z" style="fill: rgb(2, 3, 11); --darkreader-inline-fill: var(--darkreader-text-4b4b4b, #b9b3a9);" data-darkreader-inline-fill=""></path>
	<path class="st0" d="M256,258.409c29.17,0,52.75-23.583,52.75-52.75c0-29.09-23.579-52.674-52.75-52.674
		c-29.091,0-52.754,23.583-52.754,52.674C203.246,234.826,226.909,258.409,256,258.409z M222.553,211.621
		c-0.223-1.291-0.378-2.579-0.454-3.871c-0.697-11.091,3.958-22.19,12.258-29.553c8.61-7.758,18.773-10.402,28.083-9.546
		c0.386,0.034,0.72,0.155,1.061,0.265c0.258,0.084,0.504,0.17,0.738,0.296c0.602,0.314,1.091,0.746,1.489,1.261
		c0.17,0.22,0.326,0.443,0.458,0.694c1.038,1.981,0.773,4.659-1.265,6.326l-28.584,23.091L222.553,211.621z" style="fill: rgb(2, 3, 11); --darkreader-inline-fill: var(--darkreader-text-4b4b4b, #b9b3a9);" data-darkreader-inline-fill=""></path>
	<path class="st0" d="M395.792,152.985c-29.091,0-52.75,23.583-52.75,52.674c0,29.167,23.659,52.75,52.75,52.75
		c29.166,0,52.75-23.583,52.75-52.75C448.542,176.568,424.958,152.985,395.792,152.985z M366.068,211.621
		c-0.223-1.291-0.378-2.579-0.454-3.871c-0.697-11.091,3.958-22.19,12.258-29.553c8.61-7.758,18.773-10.402,28.083-9.546
		c0.386,0.034,0.72,0.155,1.061,0.265c0.258,0.084,0.504,0.17,0.738,0.296c0.602,0.314,1.091,0.746,1.489,1.261
		c0.17,0.22,0.326,0.443,0.458,0.694c1.038,1.981,0.773,4.659-1.265,6.326l-28.584,23.091L366.068,211.621z" style="fill: rgb(2, 3, 11); --darkreader-inline-fill: var(--darkreader-text-4b4b4b, #b9b3a9);" data-darkreader-inline-fill=""></path>
</g>
</svg>
