<!--?xml version="1.0" encoding="utf-8"?-->
<!-- Generator: Adobe Illustrator 18.1.1, SVG Export Plug-In . SVG Version: 6.00 Build 0)  -->

<svg version="1.1" id="_x31_0" xmlns="http://www.w3.org/2000/svg" xmlns:xlink="http://www.w3.org/1999/xlink" x="0px" y="0px" viewBox="0 0 512 512" style="width: 256px; height: 256px; opacity: 1;" xml:space="preserve">
<style type="text/css">
	.st0{fill:#374149;}
</style><style class="darkreader darkreader--sync" media="screen"></style>
<g>
	<path class="st0" d="M114.789,234.534c9.528,0,17.254-7.727,17.254-17.254c0-1.746-0.325-3.422-0.813-5.023l70.254-60.523
		c2.25,1.082,4.77,1.706,7.446,1.706c2.426,0,4.726-0.507,6.824-1.406l71.086,66.453c-0.625,1.793-1.023,3.699-1.023,5.695
		c0,9.523,7.73,17.254,17.254,17.254c9.527,0,17.254-7.731,17.254-17.254c0-2.5-0.546-4.878-1.515-7.031l71.476-78.61
		c2.126,0.922,4.466,1.438,6.93,1.438c9.523,0,17.254-7.73,17.254-17.254c0-9.594-7.73-17.254-17.254-17.254
		c-9.528,0-17.258,7.66-17.258,17.254c0,1.949,0.387,3.809,0.985,5.566l-72.375,79.602c-1.726-0.59-3.554-0.965-5.496-0.965
		c-2.438,0-4.758,0.511-6.863,1.418l-71.062-66.43c0.64-1.801,1.038-3.714,1.038-5.734c0-9.523-7.726-17.254-17.254-17.254
		c-9.523,0-17.254,7.73-17.254,17.254c0,1.77,0.328,3.454,0.832,5.066l-70.234,60.504c-2.262-1.094-4.793-1.726-7.485-1.726
		c-9.523,0-17.254,7.73-17.254,17.254C97.535,226.806,105.266,234.534,114.789,234.534z" style="fill: rgb(2, 3, 11); --darkreader-inline-fill: #b9b3a9;" data-darkreader-inline-fill=""></path>
	<polygon class="st0" points="200.027,209.623 200.027,209.412 114.789,282.846 114.789,336.752 200.027,336.752 200.027,259.791 
		200.133,209.534 	" style="fill: rgb(2, 3, 11); --darkreader-inline-fill: #b9b3a9;" data-darkreader-inline-fill=""></polygon>
	<polygon class="st0" points="217.442,209.549 217.442,209.698 217.282,209.549 217.282,336.752 294.446,336.752 294.446,281.674 
		248.625,238.846 	" style="fill: rgb(2, 3, 11); --darkreader-inline-fill: #b9b3a9;" data-darkreader-inline-fill=""></polygon>
	<polygon class="st0" points="397.215,186.459 397.215,186.221 311.699,280.295 311.699,336.752 397.215,336.752 397.215,250.237 
		397.332,186.33 	" style="fill: rgb(2, 3, 11); --darkreader-inline-fill: #b9b3a9;" data-darkreader-inline-fill=""></polygon>
	<path class="st0" d="M472,22.654H40c-22.09,0-40,17.91-40,40v304c0,22.094,17.91,40,40,40h178.199h0.383v31.102
		c0,13.875-10.657,25.426-24.485,26.543l-74.766,6.038c-2.074,0.168-3.676,1.902-3.676,3.985v11.027c0,2.207,1.79,3.996,3.996,3.996
		h272.696c2.21,0,4-1.789,4-3.996v-11.027c0-2.082-1.602-3.817-3.676-3.985l-74.766-6.038
		c-13.828-1.118-24.485-12.668-24.485-26.543v-31.102H472c22.094,0,40-17.906,40-40v-304C512,40.565,494.094,22.654,472,22.654z
		 M472,62.654v304H41.16H40v-304h430.844H472z" style="fill: rgb(2, 3, 11); --darkreader-inline-fill: #b9b3a9;" data-darkreader-inline-fill=""></path>
</g>
</svg>
