<!--?xml version="1.0" encoding="utf-8"?-->
<!-- Generator: Adobe Illustrator 18.1.1, SVG Export Plug-In . SVG Version: 6.00 Build 0)  -->

<svg version="1.1" id="_x31_0" xmlns="http://www.w3.org/2000/svg" xmlns:xlink="http://www.w3.org/1999/xlink" x="0px" y="0px" viewBox="0 0 512 512" style="width: 256px; height: 256px; opacity: 1;" xml:space="preserve">
<style type="text/css">
	.st0{fill:#374149;}
</style>
<g>
	<polygon class="st0" points="327.848,283.971 327.871,283.947 292.328,249.15 288.938,245.81 303.711,233.306 309.473,228.51 
		309.406,228.486 309.519,228.393 309.504,228.385 309.527,228.362 261.473,211.252 241.707,204.206 231.129,200.338 
		231.168,200.443 231.008,200.389 231.016,200.408 230.981,200.397 250.446,255.076 256.199,271.256 258.817,278.85 
		258.871,278.779 258.926,278.924 258.934,278.916 258.946,278.947 273.129,260.198 274.942,257.834 314.531,297.287 
		327.645,284.174 327.758,284.061 327.758,284.061 327.82,283.998 	" style="fill: rgb(2, 3, 11);"></polygon>
	<path class="st0" d="M77.621,127.662h356.766v206.977h35.402V127.662c0-19.555-15.847-35.406-35.402-35.406H77.621
		c-19.554,0-35.402,15.851-35.402,35.406v206.977h35.402V127.662z" style="fill: rgb(2, 3, 11);"></path>
	<path class="st0" d="M1.722,360.057H0.16l0,0H0v6.863c0,29.176,23.649,52.824,52.824,52.824h406.348
		c29.176,0,52.828-23.648,52.828-52.824v-6.863H1.722z M224,393.135v-6.469c0-2.348,1.906-4.254,4.254-4.254h55.489
		c2.351,0,4.258,1.906,4.258,4.254v6.469c0,2.351-1.906,4.254-4.258,4.254h-55.489C225.906,397.389,224,395.486,224,393.135z" style="fill: rgb(2, 3, 11);"></path>
</g>
</svg>
