<!--?xml version="1.0" encoding="utf-8"?-->
<!-- Generator: Adobe Illustrator 24.1.1, SVG Export Plug-In . SVG Version: 6.00 Build 0)  -->
<svg version="1.1" id="_x31_0" xmlns="http://www.w3.org/2000/svg" xmlns:xlink="http://www.w3.org/1999/xlink" x="0px" y="0px" viewBox="0 0 512 512" style="width: 256px; height: 256px; opacity: 1;" xml:space="preserve">
<style type="text/css">
	.st0{fill:#374149;}
</style><style class="darkreader darkreader--sync" media="screen"></style>
<g>
	<polygon class="st0" points="430.85,93.12 393.155,130.811 396.214,133.874 433.636,96.452 433.796,96.292 433.796,96.292 
		433.909,96.178 	" style="fill: rgb(2, 3, 11); --darkreader-inline-fill: #b9b3a9;" data-darkreader-inline-fill=""></polygon>
	<polygon class="st0" points="418.773,81.268 418.773,81.268 418.886,81.155 415.827,78.096 378.132,115.788 381.19,118.85 
		418.773,81.268 	" style="fill: rgb(2, 3, 11); --darkreader-inline-fill: #b9b3a9;" data-darkreader-inline-fill=""></polygon>
	<path class="st0" d="M105.749,468.26l1.418-1.527L493.178,80.717l4.688-4.746c1.914-1.942,1.914-5.062,0-7.004l-4.629-4.695
		l15.789-15.79c3.965-3.965,3.965-10.453,0-14.422L477.941,2.979c-3.989-3.988-10.489-3.934-14.422,0l-15.789,15.79l-4.715-4.653
		c-1.934-1.906-5.035-1.918-6.98-0.023l-4.746,4.621L67.89,382.112l-24.148,24.254L1.362,492.76
		c-2.519,5.144-1.481,11.324,2.586,15.359c4.035,4.004,10.168,5.012,15.27,2.512L105.749,468.26z M475.483,21.28l-12.621,12.618
		l-9.504-9.504l12.617-12.621c1.313-1.309,3.008-2.02,4.7-1.965c1.8-0.055,3.496,0.656,4.808,1.965
		C478.105,14.397,478.105,18.655,475.483,21.28z M385.319,166.729l-0.086,0.086l-40.043-40.042l90.738-90.742l2.949,2.949
		l9.454,9.454l27.641,27.641L385.319,166.729z M78.14,433.854l-0.446-14.722l-14.722-0.45l-0.286-9.406l277.039-277.042
		l40.043,40.042l-260.856,260.86l-16.062,16.171l-9.542-0.285L92.862,434.3L78.14,433.854z M56.682,415.276l0.286,9.41l14.726,0.446
		l0.446,14.722l14.722,0.446l0.446,14.722l2.832,0.086l6.242,0.543l-56.297,27.578l-1.038,0.492h-0.008l-10.813-10.813v-0.004
		l28.246-57.414L56.682,415.276z" style="fill: rgb(2, 3, 11); --darkreader-inline-fill: #b9b3a9;" data-darkreader-inline-fill=""></path>
</g>
</svg>
